<svg xmlns="http://www.w3.org/2000/svg" viewBox="0 0 520 520"><defs><linearGradient id="g" x1="0" y1="0" x2="1" y2="1"><stop offset="0" stop-color="#f0fdf4"/><stop offset="1" stop-color="#dcfce7"/></linearGradient></defs><rect width="520" height="520" fill="url(#g)"/><ellipse cx="260" cy="448" rx="150" ry="14" fill="#0f172a" opacity=".12"/><path d="M130 200Q100 200 90 300Q85 380 130 380Q165 380 185 330H335Q355 380 390 380Q435 380 430 300Q420 200 390 200Z" fill="#14532d"/><rect x="140" y="260" width="60" height="20" rx="4" fill="#22c55e"/><rect x="160" y="240" width="20" height="60" rx="4" fill="#22c55e"/><circle cx="360" cy="250" r="12" fill="#22c55e"/><circle cx="388" cy="276" r="12" fill="#22c55e"/><circle cx="332" cy="276" r="12" fill="#22c55e"/><circle cx="360" cy="302" r="12" fill="#22c55e"/><circle cx="230" cy="310" r="22" fill="#22c55e"/><circle cx="290" cy="310" r="22" fill="#22c55e"/></svg>